<svg xmlns="http://www.w3.org/2000/svg" style="display: none;">
  <symbol id="python" viewBox="0 0 48 48">
    <linearGradient id="python-a" x1="9.5" x2="38.5" y1="9.5" y2="38.5" gradientUnits="userSpaceOnUse">
      <stop offset="0" stop-color="#387eb8"/>
      <stop offset="1" stop-color="#366994"/>
    </linearGradient>
    <linearGradient id="python-b" x1="9.5" x2="38.5" y1="38.5" y2="9.5" gradientUnits="userSpaceOnUse">
      <stop offset="0" stop-color="#ffe052"/>
      <stop offset="1" stop-color="#ffc331"/>
    </linearGradient>
    <path fill="url(#python-a)" d="M23.7 4C13.3 4 13.7 9.6 13.7 9.6l.1 4.2h10.2v1.3H10.4S4 14.7 4 24.2c0 9.5 6.4 9.1 6.4 9.1h3.7v-5.2s-.2-4.2 4.2-4.2h10.5s4.1.1 4.1-4.1v-7.7C32.9 8.7 28.1 4 23.7 4z"/>
    <circle cx="17" cy="11.5" r="2" fill="#fff"/>
    <path fill="url(#python-b)" d="M24.3 44c10.4 0 10-5.6 10-5.6l-.1-4.2H24V32.9h13.6s6.4-.2 6.4-9.7c0-9.5-6.4-9.1-6.4-9.1h-3.7v5.2s.2 4.2-4.2 4.2H19.1s-4.1-.1-4.1 4.1v7.7C15.1 39.3 19.9 44 24.3 44z"/>
    <circle cx="31" cy="36.5" r="2" fill="#fff"/>
  </symbol>
  <symbol id="django" viewBox="0 0 48 48">
    <rect x="8" y="8" width="32" height="32" rx="8" fill="#092E20"/>
    <text x="24" y="32" text-anchor="middle" font-size="18" fill="#fff" font-family="Arial, Helvetica, sans-serif">Dj</text>
  </symbol>
  <symbol id="flask" viewBox="0 0 48 48">
    <g>
      <rect x="4" y="4" width="40" height="40" rx="8" fill="#fff"/>
      <path d="M24.5 10c-0.6 0-1 .4-1 1v12.3c0 1.2-.7 2.3-1.8 2.8-4.6 2.2-7.7 7.2-6.7 12.2.1.5.5.7 1 .7h18c.5 0 .9-.2 1-.7 1-5-2.1-10-6.7-12.2-1.1-.5-1.8-1.6-1.8-2.8V11c0-.6-.4-1-1-1zm-8.2 27c-.2-3.5 1.8-7 5.2-8.6 1.5-.7 2.5-2.2 2.5-3.8V12h2v12.6c0 1.6 1 3.1 2.5 3.8 3.4 1.6 5.4 5.1 5.2 8.6H16.3zm7.7-4.5c-3.2 0-5.5.8-5.5 2s2.3 2 5.5 2 5.5-.8 5.5-2-2.3-2-5.5-2zm0 2.5c-2.5 0-4-.6-4-1.3s1.5-1.3 4-1.3 4 .6 4 1.3-1.5 1.3-4 1.3z" fill="#212121"/>
    </g>
  </symbol>
  <symbol id="react" viewBox="0 0 48 48">
    <circle cx="24" cy="24" r="4" fill="#61DAFB"/>
    <ellipse cx="24" cy="24" rx="20" ry="8" fill="none" stroke="#61DAFB" stroke-width="2"/>
    <ellipse cx="24" cy="24" rx="8" ry="20" fill="none" stroke="#61DAFB" stroke-width="2"/>
    <ellipse cx="24" cy="24" rx="20" ry="8" fill="none" stroke="#61DAFB" stroke-width="2" transform="rotate(60 24 24)"/>
    <ellipse cx="24" cy="24" rx="20" ry="8" fill="none" stroke="#61DAFB" stroke-width="2" transform="rotate(120 24 24)"/>
  </symbol>
  <symbol id="javascript" viewBox="0 0 48 48">
    <path fill="#ffd600" d="M6,42V6h36v36H6z"></path>
    <path fill="#000001" d="M29.538 32.947c.692 1.124 1.444 2.201 3.037 2.201 1.338 0 2.04-.665 2.04-1.585 0-1.101-.726-1.492-2.198-2.133l-.807-.344c-2.329-.988-3.878-2.226-3.878-4.841 0-2.41 1.845-4.244 4.728-4.244 2.053 0 3.528.711 4.592 2.573l-2.514 1.607c-.553-.988-1.151-1.377-2.078-1.377-.946 0-1.545.597-1.545 1.377 0 .964.6 1.354 1.985 1.951l.807.344C36.452 29.645 38 30.839 38 33.523 38 36.415 35.716 38 32.65 38c-2.999 0-4.702-1.505-5.65-3.368L29.538 32.947zM17.952 33.029c.506.906 1.275 1.603 2.381 1.603 1.058 0 1.667-.418 1.667-2.043V22h3.333v11.101c0 3.367-1.953 4.899-4.805 4.899-2.577 0-4.437-1.746-5.195-3.368L17.952 33.029z"></path>
  </symbol>
  <symbol id="docker" viewBox="0 0 48 48">
    <path fill="#03A9F4" d="M40,20c0.391-1.735-0.092-3.78-2.5-6c-3.914,3.543-2.795,7.227-1.5,9c0,0-0.166,1-4,1S2,24,2,24S0.167,40,18,40c15.593,0,19.973-12.003,20.828-15.076C39.182,24.972,39.579,25.003,40,25c2.147-0.017,4.93-1.171,6-5.484C43.162,18.533,41.339,18.978,40,20z"></path>
    <path fill="#0288D1" d="M2.165,28C2.9,32.739,5.983,40,18,40c12.185,0,17.523-7.33,19.682-12H2.165z"></path>
    <path fill="#81D4FA" d="M19.812,39.938C18.892,39.616,14.74,38.848,14,33c-4.209,1.863-7.938,1.375-9.579,1.008C6.583,37.237,10.591,40,18,40C18.623,40,19.224,39.976,19.812,39.938z"></path>
    <path fill="#FFF" d="M18 30A2 2 0 1 0 18 34A2 2 0 1 0 18 30Z"></path>
    <path fill="#37474F" d="M14.914,33.597c0.224,0.505,0.02,1.162-0.51,1.318c-3.301,0.973-6.146,1.102-8.297,1.102c-0.644-0.619-1.194-1.279-1.656-1.963c2.585,0,6.71-0.12,9.144-0.966C14.117,32.906,14.69,33.09,14.914,33.597z M2,27c0,0,1.875,0.125,3-1c1.875,1.688,5.94,1.088,7,0c1.063,1.688,6.938,1.375,8,0c1.25,1.438,6.625,1.75,8,0c0.479,1.461,6.819,1.874,8,0c1.061,1.088,5.063,1.938,7.311,0C43.875,27.188,46,27,46,27v1H2 M17,32c0,0.552,0.448,1,1,1s1-0.448,1-1s-0.448-1-1-1S17,31.448,17,32z"></path>
    <path fill="#01579B" d="M11,24H6v-5h5V24z M21,19h-5v5h5V19z M31,19h-5v5h5V19z M16,14h-5v5h5V14z M26,14h-5v5h5V14z"></path>
    <path fill="#0288D1" d="M16,24h-5v-5h5V24z M26,19h-5v5h5V19z M26,9h-5v5h5V9z M21,14h-5v5h5V14z"></path>
  </symbol>
  <symbol id="git" viewBox="0 0 48 48">
    <path fill="#F4511E" d="M42.2,22.1L25.9,5.8C25.4,5.3,24.7,5,24,5c0,0,0,0,0,0c-0.7,0-1.4,0.3-1.9,0.8l-3.5,3.5l4.1,4.1c0.4-0.2,0.8-0.3,1.3-0.3c1.7,0,3,1.3,3,3c0,0.5-0.1,0.9-0.3,1.3l4,4c0.4-0.2,0.8-0.3,1.3-0.3c1.7,0,3,1.3,3,3s-1.3,3-3,3c-1.7,0-3-1.3-3-3c0-0.5,0.1-0.9,0.3-1.3l-4-4c-0.1,0-0.2,0.1-0.3,0.1v10.4c1.2,0.4,2,1.5,2,2.8c0,1.7-1.3,3-3,3s-3-1.3-3-3c0-1.3,0.8-2.4,2-2.8V18.8c-1.2-0.4-2-1.5-2-2.8c0-0.5,0.1-0.9,0.3-1.3l-4.1-4.1L5.8,22.1C5.3,22.6,5,23.3,5,24c0,0.7,0.3,1.4,0.8,1.9l16.3,16.3c0,0,0,0,0,0c0.5,0.5,1.2,0.8,1.9,0.8s1.4-0.3,1.9-0.8l16.3-16.3c0.5-0.5,0.8-1.2,0.8-1.9C43,23.3,42.7,22.6,42.2,22.1z"></path>
  </symbol>
  <symbol id="html5" viewBox="0 0 48 48">
    <path fill="#E65100" d="M41,5H7l3,34l14,4l14-4L41,5L41,5z"></path>
    <path fill="#FF6D00" d="M24 8L24 39.9 35.2 36.7 37.7 8z"></path>
    <path fill="#FFF" d="M24,25v-4h8.6l-0.7,11.5L24,35.1v-4.2l4.1-1.4l0.3-4.5H24z M32.9,17l0.3-4H24v4H32.9z"></path>
    <path fill="#EEE" d="M24,30.9v4.2l-7.9-2.6L15.7,27h4l0.2,2.5L24,30.9z M19.1,17H24v-4h-9.1l0.7,12H24v-4h-4.6L19.1,17z"></path>
  </symbol>
  <symbol id="css3" viewBox="0 0 48 48">
    <path fill="#0277BD" d="M41,5H7l3,34l14,4l14-4L41,5L41,5z"></path>
    <path fill="#039BE5" d="M24 8L24 39.9 35.2 36.7 37.7 8z"></path>
    <path fill="#FFF" d="M33.1 13L24 13 24 17 28.9 17 28.6 21 24 21 24 25 28.4 25 28.1 29.5 24 30.9 24 35.1 31.9 32.5 32.6 21 32.6 21z"></path>
    <path fill="#EEE" d="M24,13v4h-8.9l-0.3-4H24z M19.4,21l0.2,4H24v-4H19.4z M19.8,27h-4l0.3,5.5l7.9,2.6v-4.2l-4.1-1.4L19.8,27z"></path>
  </symbol>
  <symbol id="tailwindcss" viewBox="0 0 48 48">
    <path fill="#00acc1" d="M24,9.604c-6.4,0-10.4,3.199-12,9.597c2.4-3.199,5.2-4.398,8.4-3.599 c1.826,0.456,3.131,1.781,4.576,3.247C27.328,21.236,30.051,24,36,24c6.4,0,10.4-3.199,12-9.598c-2.4,3.199-5.2,4.399-8.4,3.6 c-1.825-0.456-3.13-1.781-4.575-3.247C32.672,12.367,29.948,9.604,24,9.604L24,9.604z M12,24c-6.4,0-10.4,3.199-12,9.598 c2.4-3.199,5.2-4.399,8.4-3.599c1.825,0.457,3.13,1.781,4.575,3.246c2.353,2.388,5.077,5.152,11.025,5.152 c6.4,0,10.4-3.199,12-9.598c-2.4,3.199-5.2,4.399-8.4,3.599c-1.826-0.456-3.131-1.781-4.576-3.246C20.672,26.764,17.949,24,12,24 L12,24z"></path>
  </symbol>
  <symbol id="bash" viewBox="0 0 48 48">
    <path fill="#ededed" fill-rule="evenodd" d="M22.903,3.286c0.679-0.381,1.515-0.381,2.193,0 c3.355,1.883,13.451,7.551,16.807,9.434C42.582,13.1,43,13.804,43,14.566c0,3.766,0,15.101,0,18.867 c0,0.762-0.418,1.466-1.097,1.847c-3.355,1.883-13.451,7.551-16.807,9.434c-0.679,0.381-1.515,0.381-2.193,0 c-3.355-1.883-13.451-7.551-16.807-9.434C5.418,34.899,5,34.196,5,33.434c0-3.766,0-15.101,0-18.867 c0-0.762,0.418-1.466,1.097-1.847C9.451,10.837,19.549,5.169,22.903,3.286z" clip-rule="evenodd"></path>
    <path fill="#434345" d="M23.987,46.221c-1.085,0-2.171-0.252-3.165-0.757c-2.22-1.127-5.118-2.899-7.921-4.613 c-1.973-1.206-3.836-2.346-5.297-3.157C5.381,36.458,4,34.113,4,31.572V16.627c0-2.59,1.417-4.955,3.699-6.173 c3.733-1.989,9.717-5.234,12.878-7.01h0c2.11-1.184,4.733-1.184,6.844,0c3.576,2.007,10.369,6.064,14.252,8.513 C43.13,12.874,44,14.453,44,16.182V32c0,2.4-0.859,4.048-2.553,4.895c-0.944,0.531-2.628,1.576-4.578,2.787 c-3.032,1.882-6.806,4.225-9.564,5.705C26.27,45.942,25.128,46.221,23.987,46.221z M21.556,5.188 C18.384,6.97,12.382,10.226,8.64,12.22C7.012,13.088,6,14.776,6,16.627v14.945c0,1.814,0.987,3.49,2.576,4.373 c1.498,0.832,3.378,1.981,5.369,3.199c2.77,1.693,5.634,3.445,7.783,4.536c1.458,0.739,3.188,0.717,4.631-0.056 c2.703-1.451,6.447-3.775,9.456-5.643c1.97-1.223,3.671-2.279,4.696-2.854C41.835,34.464,42,33.109,42,32V16.182 c0-1.037-0.521-1.983-1.392-2.532c-3.862-2.435-10.613-6.467-14.165-8.461C24.913,4.331,23.086,4.331,21.556,5.188L21.556,5.188z"></path>
    <path fill="#434345" d="M22.977,41.654l-0.057-13.438c-0.011-2.594,1.413-4.981,3.701-6.204l12.01-6.416 c1.998-1.068,4.414,0.38,4.414,2.646v14.73c0,1.041-0.54,2.008-1.426,2.554l-14.068,8.668 C25.557,45.424,22.987,43.996,22.977,41.654z"></path>
    <path fill="#ededed" d="M28.799,26.274c0.123-0.063,0.225,0.014,0.227,0.176l0.013,1.32 c0.552-0.219,1.032-0.278,1.467-0.177c0.095,0.024,0.136,0.153,0.098,0.306l-0.291,1.169c-0.024,0.089-0.072,0.178-0.132,0.233 c-0.026,0.025-0.052,0.044-0.077,0.057c-0.04,0.02-0.078,0.026-0.114,0.019c-0.199-0.045-0.671-0.148-1.413,0.228 c-0.778,0.395-1.051,1.071-1.046,1.573c0.007,0.601,0.315,0.783,1.377,0.802c1.416,0.023,2.027,0.643,2.042,2.067 c0.016,1.402-0.733,2.905-1.876,3.826l0.025,1.308c0.001,0.157-0.1,0.338-0.225,0.4l-0.775,0.445 c-0.123,0.063-0.225-0.014-0.227-0.172l-0.013-1.286c-0.664,0.276-1.334,0.342-1.763,0.17c-0.082-0.032-0.117-0.152-0.084-0.288 l0.28-1.181c0.022-0.092,0.071-0.186,0.138-0.246c0.023-0.023,0.048-0.04,0.072-0.053c0.044-0.022,0.087-0.027,0.124-0.013 c0.462,0.155,1.053,0.082,1.622-0.206c0.722-0.365,1.206-1.102,1.198-1.834c-0.007-0.664-0.366-0.939-1.241-0.946 c-1.113,0.002-2.151-0.216-2.168-1.855c-0.014-1.35,0.688-2.753,1.799-3.641l-0.013-1.319c-0.001-0.162,0.098-0.34,0.225-0.405 L28.799,26.274z"></path>
    <path fill="#4da925" d="M37.226,34.857l-3.704,2.185c-0.109,0.061-0.244-0.019-0.244-0.143v-1.252 c0-0.113,0.061-0.217,0.16-0.273l3.704-2.185c0.111-0.061,0.246,0.019,0.246,0.145v1.248 C37.388,34.697,37.326,34.801,37.226,34.857"></path>
  </symbol>
  <symbol id="postgresql" viewBox="0 0 48 48">
    <path fill="#fff" d="M44.083,29.79c-0.183-0.829-0.935-1.796-2.452-1.796c-0.31,0-0.649,0.039-1.035,0.119c-0.708,0.146-1.311,0.217-1.842,0.241c4.133-7.04,6.816-16.819,4.159-20.214c-3.501-4.473-8.214-5.141-10.711-5.141L31.967,3c-0.929,0.015-1.893,0.129-2.863,0.339l-3.583,0.774C25.033,4.052,24.536,4.009,24.018,4l-0.03,0l-0.016,0l-0.152-0.001c-1.593,0-3.046,0.338-4.341,0.973l-1.251-0.493c-1.72-0.678-4.308-1.485-6.868-1.485c-0.144,0-0.287,0.003-0.431,0.008C8.407,3.093,6.241,4.05,4.664,5.769C2.696,7.915,1.8,11.054,2.003,15.1C2.013,15.309,4.461,36,11.4,36h0.025l0.064-0.001c0.901-0.022,1.76-0.384,2.563-1.077c0.613,0.46,1.406,0.732,2.145,0.84c0.488,0.115,1.366,0.278,2.418,0.278c1.284,0,2.442-0.263,3.44-0.738c-0.001,0.88-0.006,1.994-0.016,3.418l-0.001,0.075l0.005,0.075c0.097,1.419,0.342,2.698,0.711,3.701c1.051,2.859,2.866,4.434,5.111,4.434c0.093,0,0.188-0.003,0.284-0.009c1.846-0.114,3.717-1.151,5.004-2.772c1.393-1.755,1.715-3.607,1.839-5.026L35,39.111v-0.088v-4.079l0.103,0.01l0.436,0.038l0.042,0.004l0.042,0.002c0.124,0.006,0.252,0.008,0.381,0.008c1.507,0,3.362-0.391,4.616-0.974C41.819,33.476,44.559,31.948,44.083,29.79z"></path>
    <path fill="#0277bd" d="M33,34c0-0.205,0.012-0.376,0.018-0.565C33.008,33.184,33,33,33,33s0.012-0.009,0.032-0.022c0.149-2.673,0.886-3.703,1.675-4.29c-0.11-0.153-0.237-0.318-0.356-0.475c-0.333-0.437-0.748-0.979-1.192-1.674l-0.082-0.158c-0.067-0.164-0.229-0.447-0.435-0.819c-1.183-2.14-3.645-6.592-1.96-9.404c0.738-1.232,2.122-1.942,4.121-2.117C33.986,11.718,30.925,6.115,23.985,6c-0.002,0-0.004,0-0.006,0c-6.041-0.098-8.026,5.392-8.672,8.672c0.89-0.377,1.906-0.606,2.836-0.606c0.014,0,0.029,0,0.043,0c2.29,0.017,3.865,1.239,4.323,3.354c0.335,1.552,0.496,2.91,0.492,4.153c-0.01,2.719-0.558,4.149-1.042,5.411l-0.154,0.408c-0.124,0.334-0.255,0.645-0.379,0.937c-0.126,0.298-0.237,0.563-0.318,0.802c0.484,0.11,0.864,0.265,1.125,0.38l0.151,0.066c0.047,0.02,0.094,0.043,0.137,0.069c0.848,0.516,1.376,1.309,1.489,2.233c0.061,0.498,0.051,3.893,0.03,6.855c0.087,1.285,0.305,2.364,0.593,3.146c0.409,1.114,1.431,3.241,3.394,3.119c1.37-0.085,2.687-0.919,3.561-2.019c0.938-1.181,1.284-2.487,1.414-3.958V34z"></path>
    <path fill="#0277bd" d="M15.114 28.917c-1.613-1.683-2.399-3.947-2.104-6.056.285-2.035.124-4.027.037-5.098-.029-.357-.048-.623-.047-.77 0-.008.002-.015.003-.023 0-.004-.002-.007-.002-.011.121-3.021 1.286-7.787 4.493-10.62C15.932 5.724 13.388 4.913 11 5 7.258 5.136 3.636 7.724 4 15c.137 2.73 3.222 19.103 7.44 19 .603-.015 1.229-.402 1.872-1.176 1.017-1.223 2.005-2.332 2.708-3.104C15.705 29.481 15.401 29.217 15.114 28.917zM37.023 14.731c-.104-.729-.211-1.484-.185-2.303.023-.742.105-1.442.184-2.119.062-.533.11-1.045.138-1.55-1.289.107-2.145.479-2.551 1.108.168-.057.358-.102.568-.129.892-.116 1.543.141 1.618.637.055.363-.253.705-.388.836-.277.269-.626.442-.981.488-.064.008-.129.012-.192.012-.353 0-.69-.121-.949-.3.112 1.973 1.567 4.612 2.283 5.907.153.277.271.498.369.688C35.154 24.163 35.009 23.143 34.847 22.007zM41 30.071c-2.665.55-3.947.257-4.569-.126-.1.072-.2.133-.293.19-.372.225-.961.583-1.105 2.782.083.016.156.025.246.044L35.714 33c1.32.06 3.049-.31 4.063-.781C41.962 31.205 43.153 29.627 41 30.071zM22.023 32.119c-.037-.298-.198-.539-.492-.732l-.108-.047C21.062 31.181 20.653 31 20 31h-.004c-.127.01-.253.019-.38.019-.052 0-.103-.007-.155-.009-.474.365-1.148.647-2.816.99-2.98.759-1.221 1.655-.078 1.794 1.106.277 3.735.614 5.481-.809C22.043 32.537 22.035 32.229 22.023 32.119z"></path>
    <path fill="#0277bd" d="M20.681 18.501c-.292.302-.753.566-1.262.484-.828-.134-1.463-1.133-1.417-1.508h0c.044-.374.751-.569 1.578-.435.287.047.548.128.768.228-.32-.688-.899-1.085-1.782-1.182-1.565-.174-3.226.644-3.56 1.097.007.11.02.251.033.417.093 1.147.265 3.284-.05 5.537-.208 1.485.393 3.169 1.567 4.395.757.79 1.641 1.29 2.513 1.438.111-.478.309-.944.513-1.425.113-.265.233-.547.346-.852l.162-.427c.443-1.155.9-2.35.909-4.703C21.003 20.66 20.892 19.627 20.681 18.501zM34.847 22.007c-.104-.729-.211-1.484-.185-2.303.023-.742.105-1.442.184-2.119.062-.533.11-1.045.138-1.55-1.289.107-2.145.479-2.551 1.108.168-.057.358-.102.568-.129.892-.116 1.543.141 1.618.637.055.363-.253.705-.388.836-.277.269-.626.442-.981.488-.064.008-.129.012-.192.012-.353 0-.69-.121-.949-.3.112 1.973 1.567 4.612 2.283 5.907.153.277.271.498.369.688C35.154 24.163 35.009 23.143 34.847 22.007z"></path>
  </symbol>
</svg>
